<svg width="175" height="39" viewBox="0 0 175 39" fill="none" xmlns="http://www.w3.org/2000/svg">
<path d="M11.4352 38H19.5352V9.6H30.7352V3H0.235156V9.6H11.4352V38ZM58.159 24.65C58.159 16 52.059 10.7 44.159 10.7C35.959 10.7 29.809 16.5 29.809 24.55C29.809 32.55 35.859 38.4 45.159 38.4C50.009 38.4 53.759 36.9 56.259 34.05L52.109 29.55C50.259 31.3 48.209 32.15 45.359 32.15C41.259 32.15 38.409 30.1 37.659 26.75H58.009C58.059 26.1 58.159 25.25 58.159 24.65ZM44.209 16.6C47.709 16.6 50.259 18.8 50.809 22.2H37.559C38.109 18.75 40.659 16.6 44.209 16.6ZM82.952 0.899998V13.95C81.002 11.75 78.202 10.7 74.902 10.7C67.302 10.7 61.452 16.1 61.452 24.55C61.452 33 67.302 38.4 74.902 38.4C78.502 38.4 81.352 37.25 83.302 34.9V38H90.752V0.899998H82.952ZM76.252 32C72.352 32 69.352 29.2 69.352 24.55C69.352 19.9 72.352 17.1 76.252 17.1C80.102 17.1 83.102 19.9 83.102 24.55C83.102 29.2 80.102 32 76.252 32ZM124.321 24.65C124.321 16 118.221 10.7 110.321 10.7C102.121 10.7 95.9711 16.5 95.9711 24.55C95.9711 32.55 102.021 38.4 111.321 38.4C116.171 38.4 119.921 36.9 122.421 34.05L118.271 29.55C116.421 31.3 114.371 32.15 111.521 32.15C107.421 32.15 104.571 30.1 103.821 26.75H124.171C124.221 26.1 124.321 25.25 124.321 24.65ZM110.371 16.6C113.871 16.6 116.421 18.8 116.971 22.2H103.721C104.271 18.75 106.821 16.6 110.371 16.6ZM136.964 14.65V11.1H129.514V38H137.314V25.3C137.314 20.15 140.164 17.8 144.464 17.8C145.064 17.8 145.564 17.85 146.214 17.9V10.7C142.064 10.7 138.864 12.05 136.964 14.65ZM161.555 10.7C157.255 10.7 152.905 11.85 149.955 13.95L152.755 19.4C154.705 17.85 157.655 16.9 160.505 16.9C164.705 16.9 166.705 18.85 166.705 22.2H160.505C152.305 22.2 148.955 25.5 148.955 30.25C148.955 34.9 152.705 38.4 159.005 38.4C162.955 38.4 165.755 37.1 167.205 34.65V38H174.505V22.65C174.505 14.5 169.755 10.7 161.555 10.7ZM160.955 33.15C158.205 33.15 156.555 31.85 156.555 29.9C156.555 28.1 157.705 26.75 161.355 26.75H166.705V29.5C165.805 31.95 163.555 33.15 160.955 33.15Z" fill="white"/>
</svg>
