<svg width="71" height="15" viewBox="0 0 71 15" fill="none" xmlns="http://www.w3.org/2000/svg">
<path d="M4.56303 14.84H7.86307V3.48H12.4261V0.84H0V3.48H4.56303V14.84Z" fill="#ED5151"/>
<path d="M23.5989 9.5C23.5989 6.04 21.1137 3.92 17.8951 3.92C14.5544 3.92 12.0488 6.24 12.0488 9.46C12.0488 12.66 14.5136 15 18.3026 15C20.2785 15 21.8063 14.4 22.8248 13.26L21.1341 11.46C20.3804 12.16 19.5452 12.5 18.384 12.5C16.7136 12.5 15.5525 11.68 15.247 10.34H23.5378C23.5582 10.08 23.5989 9.74 23.5989 9.5ZM17.9155 6.28C19.3415 6.28 20.3804 7.16 20.6044 8.52H15.2062C15.4303 7.14 16.4692 6.28 17.9155 6.28Z" fill="#ED5151"/>
<path d="M33.6999 0V5.22C32.9054 4.34 31.7647 3.92 30.4202 3.92C27.3239 3.92 24.9405 6.08 24.9405 9.46C24.9405 12.84 27.3239 15 30.4202 15C31.8869 15 33.048 14.54 33.8425 13.6V14.84H36.8777V0H33.6999ZM30.9702 12.44C29.3813 12.44 28.1591 11.32 28.1591 9.46C28.1591 7.6 29.3813 6.48 30.9702 6.48C32.5388 6.48 33.761 7.6 33.761 9.46C33.761 11.32 32.5388 12.44 30.9702 12.44Z" fill="#ED5151"/>
<path d="M50.5542 9.5C50.5542 6.04 48.069 3.92 44.8504 3.92C41.5097 3.92 39.0041 6.24 39.0041 9.46C39.0041 12.66 41.4689 15 45.2579 15C47.2338 15 48.7616 14.4 49.7801 13.26L48.0894 11.46C47.3357 12.16 46.5005 12.5 45.3393 12.5C43.6689 12.5 42.5078 11.68 42.2023 10.34H50.4931C50.5135 10.08 50.5542 9.74 50.5542 9.5ZM44.8708 6.28C46.2968 6.28 47.3357 7.16 47.5597 8.52H42.1615C42.3856 7.14 43.4245 6.28 44.8708 6.28Z" fill="#ED5151"/>
<path d="M55.7051 5.5V4.08H52.6699V14.84H55.8477V9.76C55.8477 7.7 57.0089 6.76 58.7607 6.76C59.0052 6.76 59.2089 6.78 59.4737 6.8V3.92C57.7829 3.92 56.4792 4.46 55.7051 5.5Z" fill="#ED5151"/>
<path d="M65.724 3.92C63.9721 3.92 62.1999 4.38 60.998 5.22L62.1388 7.4C62.9332 6.78 64.1351 6.4 65.2962 6.4C67.0073 6.4 67.8222 7.18 67.8222 8.52H65.2962C61.9554 8.52 60.5906 9.84 60.5906 11.74C60.5906 13.6 62.1184 15 64.6851 15C66.2944 15 67.4351 14.48 68.0259 13.5V14.84H71V8.7C71 5.44 69.0648 3.92 65.724 3.92ZM65.4796 12.9C64.3592 12.9 63.6869 12.38 63.6869 11.6C63.6869 10.88 64.1555 10.34 65.6425 10.34H67.8222V11.44C67.4555 12.42 66.5388 12.9 65.4796 12.9Z" fill="#ED5151"/>
</svg>
